<svg width="49" height="59" viewBox="0 0 49 59" fill="none" xmlns="http://www.w3.org/2000/svg">
<path d="M24.5 51.3208L37.975 37.8796C40.6398 35.2213 42.4544 31.8344 43.1895 28.1473C43.9246 24.4602 43.5472 20.6384 42.1048 17.1653C40.6625 13.6922 38.2201 10.7237 35.0865 8.63522C31.9529 6.5467 28.2687 5.43196 24.5 5.43196C20.7313 5.43196 17.0471 6.5467 13.9135 8.63522C10.7799 10.7237 8.33748 13.6922 6.89516 17.1653C5.45283 20.6384 5.07535 24.4602 5.81046 28.1473C6.54556 31.8344 8.36024 35.2213 11.025 37.8796L24.5 51.3208ZM24.5 59L7.17579 41.7192C3.74943 38.3014 1.41606 33.9468 0.47075 29.2062C-0.474564 24.4656 0.0106353 19.5518 1.86499 15.0863C3.71935 10.6207 6.85957 6.80396 10.8886 4.11863C14.9176 1.43329 19.6544 0 24.5 0C29.3456 0 34.0824 1.43329 38.1114 4.11863C42.1404 6.80396 45.2807 10.6207 47.135 15.0863C48.9894 19.5518 49.4746 24.4656 48.5293 29.2062C47.5839 33.9468 45.2506 38.3014 41.8242 41.7192L24.5 59ZM24.5 29.8692C25.944 29.8692 27.3288 29.297 28.3498 28.2785C29.3708 27.2601 29.9444 25.8787 29.9444 24.4384C29.9444 22.998 29.3708 21.6167 28.3498 20.5982C27.3288 19.5798 25.944 19.0076 24.5 19.0076C23.056 19.0076 21.6712 19.5798 20.6502 20.5982C19.6292 21.6167 19.0556 22.998 19.0556 24.4384C19.0556 25.8787 19.6292 27.2601 20.6502 28.2785C21.6712 29.297 23.056 29.8692 24.5 29.8692ZM24.5 35.3C21.6121 35.3 18.8425 34.1556 16.8004 32.1187C14.7583 30.0818 13.6111 27.3191 13.6111 24.4384C13.6111 21.5577 14.7583 18.795 16.8004 16.7581C18.8425 14.7211 21.6121 13.5768 24.5 13.5768C27.3879 13.5768 30.1575 14.7211 32.1996 16.7581C34.2417 18.795 35.3889 21.5577 35.3889 24.4384C35.3889 27.3191 34.2417 30.0818 32.1996 32.1187C30.1575 34.1556 27.3879 35.3 24.5 35.3Z" fill="#0066FF"/>
</svg>
