<svg width="29" height="26" viewBox="0 0 29 26" fill="none" xmlns="http://www.w3.org/2000/svg">
<path d="M21.0254 1C24.962 1.0002 28 3.99 28 7.79297C28 10.1274 26.9321 12.3347 24.835 14.8418C22.7277 17.3611 19.6931 20.0548 15.9395 23.3809L15.9375 23.3828L14.5 24.6611L13.0625 23.3828L13.0605 23.3809C9.30691 20.0548 6.27234 17.3611 4.16504 14.8418C2.06794 12.3347 1.00002 10.1274 1 7.79297C1 3.99 4.03798 1.0002 7.97461 1C10.2038 1 12.3543 2.0195 13.749 3.60742L14.5 4.46289L15.251 3.60742C16.6457 2.0195 18.7962 1 21.0254 1Z" fill="#F5F5F5" stroke="#0066FF" stroke-width="2"/>
</svg>
<svg width="29" height="26" viewBox="0 0 29 26" fill="none" xmlns="http://www.w3.org/2000/svg">
<path d="M21.0254 1C24.962 1.0002 28 3.99 28 7.79297C28 10.1274 26.9321 12.3347 24.835 14.8418C22.7277 17.3611 19.6931 20.0548 15.9395 23.3809L15.9375 23.3828L14.5 24.6611L13.0625 23.3828L13.0605 23.3809C9.30691 20.0548 6.27234 17.3611 4.16504 14.8418C2.06794 12.3347 1.00002 10.1274 1 7.79297C1 3.99 4.03798 1.0002 7.97461 1C10.2038 1 12.3543 2.0195 13.749 3.60742L14.5 4.46289L15.251 3.60742C16.6457 2.0195 18.7962 1 21.0254 1Z" fill="#F5F5F5" stroke="#0066FF" stroke-width="2"/>
</svg>
