<svg width="48" height="58" viewBox="0 0 48 58" fill="none" xmlns="http://www.w3.org/2000/svg">
<path d="M24 58C17.05 56.3083 11.312 52.4533 6.786 46.4348C2.26 40.4163 -0.00199867 33.7347 1.32509e-06 26.39V8.7L24 0L48 8.7V26.39C48 33.7367 45.738 40.4192 41.214 46.4377C36.69 52.4562 30.952 56.3103 24 58ZM24 51.91C29.2 50.315 33.5 47.125 36.9 42.34C40.3 37.555 42 32.2383 42 26.39V12.6875L24 6.1625L6 12.6875V26.39C6 32.2383 7.7 37.555 11.1 42.34C14.5 47.125 18.8 50.315 24 51.91Z" fill="#0066FF"/>
</svg>
