<svg width="29" height="26" viewBox="0 0 29 26" fill="none" xmlns="http://www.w3.org/2000/svg">
<path d="M14.5 26L12.3975 24.1297C4.93 17.5128 0 13.1346 0 7.79292C0 3.41471 3.509 0 7.975 0C10.498 0 12.9195 1.14768 14.5 2.94714C16.0805 1.14768 18.502 0 21.025 0C25.491 0 29 3.41471 29 7.79292C29 13.1346 24.07 17.5128 16.6025 24.1297L14.5 26Z" fill="black"/>
</svg>
<svg width="29" height="26" viewBox="0 0 29 26" fill="none" xmlns="http://www.w3.org/2000/svg">
<path d="M14.5 26L12.3975 24.1297C4.93 17.5128 0 13.1346 0 7.79292C0 3.41471 3.509 0 7.975 0C10.498 0 12.9195 1.14768 14.5 2.94714C16.0805 1.14768 18.502 0 21.025 0C25.491 0 29 3.41471 29 7.79292C29 13.1346 24.07 17.5128 16.6025 24.1297L14.5 26Z" fill="black"/>
</svg>
