<svg width="24" height="22" viewBox="0 0 24 22" fill="none" xmlns="http://www.w3.org/2000/svg">
<path d="M11.5268 18.4305L5.93904 21.7937C5.69219 21.9507 5.43412 22.0179 5.16483 21.9955C4.89553 21.9731 4.65991 21.8834 4.45794 21.7264C4.25597 21.5695 4.09888 21.3735 3.98668 21.1385C3.87448 20.9036 3.85203 20.6399 3.91936 20.3475L5.40045 13.991L0.452241 9.71972C0.227832 9.51793 0.087801 9.28788 0.0321476 9.02959C-0.0235058 8.77129 -0.00689958 8.51928 0.0819663 8.27354C0.170832 8.0278 0.305477 7.826 0.485902 7.66816C0.666327 7.51031 0.913176 7.40941 1.22645 7.36547L7.75675 6.79372L10.2813 0.807174C10.3936 0.538116 10.5677 0.336322 10.8038 0.201793C11.0398 0.0672643 11.2809 0 11.5268 0C11.7728 0 12.0138 0.0672643 12.2499 0.201793C12.4859 0.336322 12.6601 0.538116 12.7723 0.807174L15.2969 6.79372L21.8272 7.36547C22.1413 7.41031 22.3882 7.5112 22.5677 7.66816C22.7473 7.82511 22.8819 8.0269 22.9717 8.27354C23.0614 8.52017 23.0785 8.77264 23.0228 9.03094C22.9672 9.28923 22.8267 9.51883 22.6014 9.71972L17.6532 13.991L19.1343 20.3475C19.2016 20.639 19.1792 20.9027 19.067 21.1385C18.9547 21.3744 18.7977 21.5704 18.5957 21.7264C18.3937 21.8825 18.1581 21.9722 17.8888 21.9955C17.6195 22.0188 17.3614 21.9516 17.1146 21.7937L11.5268 18.4305Z" fill="#10B981"/>
</svg>
<svg width="24" height="22" viewBox="0 0 24 22" fill="none" xmlns="http://www.w3.org/2000/svg">
<path d="M11.5268 18.4305L5.93904 21.7937C5.69219 21.9507 5.43412 22.0179 5.16483 21.9955C4.89553 21.9731 4.65991 21.8834 4.45794 21.7264C4.25597 21.5695 4.09888 21.3735 3.98668 21.1385C3.87448 20.9036 3.85203 20.6399 3.91936 20.3475L5.40045 13.991L0.452241 9.71972C0.227832 9.51793 0.087801 9.28788 0.0321476 9.02959C-0.0235058 8.77129 -0.00689958 8.51928 0.0819663 8.27354C0.170832 8.0278 0.305477 7.826 0.485902 7.66816C0.666327 7.51031 0.913176 7.40941 1.22645 7.36547L7.75675 6.79372L10.2813 0.807174C10.3936 0.538116 10.5677 0.336322 10.8038 0.201793C11.0398 0.0672643 11.2809 0 11.5268 0C11.7728 0 12.0138 0.0672643 12.2499 0.201793C12.4859 0.336322 12.6601 0.538116 12.7723 0.807174L15.2969 6.79372L21.8272 7.36547C22.1413 7.41031 22.3882 7.5112 22.5677 7.66816C22.7473 7.82511 22.8819 8.0269 22.9717 8.27354C23.0614 8.52017 23.0785 8.77264 23.0228 9.03094C22.9672 9.28923 22.8267 9.51883 22.6014 9.71972L17.6532 13.991L19.1343 20.3475C19.2016 20.639 19.1792 20.9027 19.067 21.1385C18.9547 21.3744 18.7977 21.5704 18.5957 21.7264C18.3937 21.8825 18.1581 21.9722 17.8888 21.9955C17.6195 22.0188 17.3614 21.9516 17.1146 21.7937L11.5268 18.4305Z" fill="#10B981"/>
</svg>
