<svg width="58" height="49" viewBox="0 0 58 49" fill="none" xmlns="http://www.w3.org/2000/svg">
<path d="M8.29376 48.9988H49.7062C55.2256 48.9988 58 45.9995 58 39.9985V9.03135C58 3.03034 55.2256 0 49.7062 0H8.29376C2.77435 0 0 3.03034 0 9.03135V39.9985C0 45.9995 2.77323 48.9988 8.29376 48.9988ZM4.25281 9.29486C4.25281 6.26452 5.73239 4.69218 8.37264 4.69218H49.6533C52.2676 4.69218 53.7472 6.26452 53.7472 9.29486V11.741H4.25281V9.29486ZM8.37264 44.3116C5.73126 44.3116 4.25281 42.7666 4.25281 39.7375V18.3536H53.7472V39.7362C53.7472 42.7653 52.2676 44.3103 49.6533 44.3103L8.37264 44.3116ZM11.4096 35.6867H17.8812C19.4396 35.6867 20.4696 34.5506 20.4696 32.89V27.5005C20.4696 25.8697 19.4396 24.7038 17.8812 24.7038H11.4096C9.8511 24.7038 8.82114 25.8697 8.82114 27.5005V32.89C8.82114 34.5506 9.8511 35.6867 11.4096 35.6867Z" fill="#0066FF"/>
</svg>
